<mxfile host="app.diagrams.net" modified="2024-03-15T09:17:37.981Z" agent="Mozilla/5.0 (Macintosh; Intel Mac OS X 10_15_7) AppleWebKit/537.36 (KHTML, like Gecko) Chrome/118.0.0.0 Safari/537.36" version="24.0.6" etag="vS3gDBFhpjMb8TTi1dmK" type="github">
  <diagram name="第 1 页" id="r5R-uN5ZUjZEh3aReZVh">
    <mxGraphModel>
      <root>
        <mxCell id="0" />
        <mxCell id="1" parent="0" />
      </root>
    </mxGraphModel>
  </diagram>
</mxfile>
